<svg xmlns="http://www.w3.org/2000/svg" width="560.229" height="565.37" viewBox="0 0 560.229 565.37"><g transform="translate(-1438.559 165.647)"><g transform="translate(1439.5 -164.608)"><path d="M-51.5,395.624l77.249.1,202.1-561.331H149.855Z" transform="translate(51.5 165.608)" fill="#fff" stroke="#101010" stroke-linejoin="bevel" stroke-width="2"/></g><g transform="translate(1718.5 -162.608)"><path d="M-51.5,395.624l77.249.1,202.1-561.331H149.855Z" transform="translate(51.5 165.608)" fill="#fff" stroke="#101010" stroke-linejoin="bevel" stroke-width="2"/></g><path d="M100.091,563.37,0,283.319l1.835-.058c-1.025-.045-1.57-.077-1.59-.078l24.672-68.8c1.472.09,9.416.54,21.4.54,15.753,0,31.224-.754,45.982-2.237,28.57-2.871,69.835-9.342,104.181-23.873a168.041,168.041,0,0,0,22.487-11.441,108.885,108.885,0,0,0,18.56-14.166,73.506,73.506,0,0,0,13.379-17.16,60.561,60.561,0,0,0,6.946-20.42,53.352,53.352,0,0,0-.677-20.959,40.889,40.889,0,0,0-8.123-16.059A48.929,48.929,0,0,0,241.4,81.2a65.136,65.136,0,0,0-9.419-6.077A106.949,106.949,0,0,0,209.04,66.44c-14.467-3.829-32.122-6.184-53.974-7.2-11.481-.536-23.763-.807-36.506-.807-21.719,0-37.406.8-37.562.807L45.608,156.689,101.753.128l.247,0C106.433.1,122.25,0,139.616,0c11.75,0,21.983.043,30.413.128,15.862.158,30.162.859,43.717,2.14a316.312,316.312,0,0,1,45.309,7.341,200.179,200.179,0,0,1,21.283,6.437,141.339,141.339,0,0,1,19.32,8.716,99.9,99.9,0,0,1,16.57,11.322A75.415,75.415,0,0,1,329.26,50.337,67.129,67.129,0,0,1,337.616,66.8a74.732,74.732,0,0,1,3.827,19.652,101.715,101.715,0,0,1-1.367,23.114,156.347,156.347,0,0,1-7.228,26.853A166.309,166.309,0,0,1,308,181.785,179.36,179.36,0,0,1,291.347,200.5a201.06,201.06,0,0,1-18.922,16.287,231.926,231.926,0,0,1-20.771,14.029c-6.983,4.2-14.453,8.212-22.2,11.937a344,344,0,0,1-47.032,18.261c-28.017,8.678-59.271,14.98-92.894,18.731q-6.588.735-12.874,1.3L178.258,563.37Z" transform="translate(1616.632 -164.647)" fill="#fff" stroke="#101010" stroke-linejoin="bevel" stroke-width="2"/></g></svg>